<svg xmlns="http://www.w3.org/2000/svg" xmlns:xlink="http://www.w3.org/1999/xlink" width="0" height="0" style="display:none;"><symbol id="icon-clock">
<path fill-rule="evenodd" fill="rgb(0, 198, 164)" d="M16.3,15.995 L16.3,0.4 L17.3,0.4 C24.713,0.4 32.3,7.284 32.3,14.995 L32.3,15.995 L16.3,15.995 ZM18.3,2.41 L18.3,13.995 L29.956,13.995 C29.401,8.28 23.970,2.598 18.3,2.41 ZM14.3,29.995 C20.621,29.995 26.3,24.612 26.3,17.995 L28.3,17.995 C28.3,25.714 21.723,31.994 14.3,31.994 C6.284,31.994 0.3,25.714 0.3,17.995 C0.3,10.274 6.284,3.995 14.3,3.995 L14.3,5.995 C7.386,5.995 2.3,11.378 2.3,17.995 C2.3,24.612 7.386,29.995 14.3,29.995 Z"></path>
</symbol><symbol id="icon-dot">
<path fill-rule="evenodd" fill="rgb(0, 198, 164)" d="M24 33C28.9706 33 33 28.9706 33 24C33 19.0294 28.9706 15 24 15C19.0294 15 15 19.0294 15 24C15 28.9706 19.0294 33 24 33Z"></path>
</symbol><symbol id="icon-microphone">
<path fill-rule="evenodd" fill="rgb(0, 198, 164)" d="M13.641,29.711 L18.189,29.711 C18.816,29.711 19.325,30.223 19.325,30.854 C19.325,31.486 18.816,31.998 18.189,31.998 L6.820,31.998 C6.192,31.998 5.684,31.486 5.684,30.854 C5.684,30.223 6.192,29.711 6.820,29.711 L11.368,29.711 L11.368,27.373 C4.993,26.796 0.0,21.408 0.0,14.848 C0.0,14.217 0.508,13.705 1.136,13.705 C1.764,13.705 2.273,14.217 2.273,14.848 C2.273,20.531 6.854,25.138 12.505,25.138 C18.155,25.138 22.736,20.531 22.736,14.848 C22.736,14.217 23.245,13.705 23.873,13.705 C24.501,13.705 25.9,14.217 25.9,14.848 C25.9,21.408 20.15,26.796 13.641,27.373 L13.641,29.711 ZM12.505,0.14 C16.899,0.14 20.462,3.568 20.462,7.988 L20.462,14.848 C20.462,19.268 16.899,22.851 12.505,22.851 C8.109,22.851 4.547,19.268 4.547,14.848 L4.547,7.988 C4.547,3.568 8.109,0.14 12.505,0.14 L12.505,0.14 ZM12.505,2.271 C9.365,2.271 6.820,4.831 6.820,7.988 L6.820,14.848 C6.820,18.5 9.365,20.565 12.505,20.565 C15.644,20.565 18.189,18.5 18.189,14.848 L18.189,7.988 C18.189,4.831 15.644,2.271 12.505,2.271 L12.505,2.271 Z"></path>
</symbol><symbol id="icon-televersion">
<path fill-rule="evenodd" fill="rgb(0, 198, 164)" d="M33.741,25.768 L31.230,25.768 L31.230,29.578 C31.230,31.453 29.698,32.965 27.861,32.965 L8.384,32.965 C6.546,32.965 5.15,31.453 5.15,29.638 L5.15,25.768 L2.504,25.768 C1.646,25.768 0.973,25.103 0.973,24.256 L0.973,17.423 C0.973,16.576 1.646,15.911 2.504,15.911 L5.15,15.911 L5.15,13.613 C5.15,11.798 6.546,10.286 8.384,10.286 L13.203,10.286 L10.288,5.664 C10.204,5.673 10.123,5.690 10.37,5.690 C8.629,5.690 7.526,4.541 7.526,3.211 C7.526,1.880 8.690,0.732 10.37,0.732 C11.385,0.732 12.549,1.880 12.549,3.211 C12.549,3.802 12.310,4.351 11.936,4.785 L15.405,10.286 L20.839,10.286 L24.326,4.757 C23.975,4.327 23.757,3.789 23.757,3.211 C23.757,1.880 24.921,0.732 26.268,0.732 C27.616,0.732 28.780,1.880 28.780,3.211 C28.780,4.541 27.616,5.690 26.268,5.690 C26.162,5.690 26.62,5.671 25.960,5.659 L23.42,10.286 L27.861,10.286 C29.698,10.286 31.230,11.798 31.230,13.613 L31.230,15.911 L33.741,15.911 C34.598,15.911 35.272,16.576 35.272,17.423 L35.272,24.256 C35.272,25.42 34.598,25.768 33.741,25.768 ZM10.37,2.485 C9.670,2.485 9.364,2.787 9.364,3.151 C9.364,3.513 9.670,3.815 10.37,3.815 C10.405,3.815 10.711,3.513 10.711,3.151 C10.711,2.787 10.405,2.485 10.37,2.485 ZM26.942,3.151 C26.942,2.787 26.636,2.485 26.268,2.485 C25.901,2.485 25.595,2.787 25.595,3.151 C25.595,3.513 25.901,3.815 26.268,3.815 C26.636,3.815 26.942,3.513 26.942,3.151 ZM2.810,17.725 L2.810,23.954 L5.15,23.954 L5.15,17.725 L2.810,17.725 ZM29.392,13.613 C29.392,12.766 28.718,12.101 27.861,12.101 L8.384,12.101 C7.526,12.101 6.852,12.766 6.852,13.613 L6.852,29.578 C6.852,30.425 7.526,31.90 8.384,31.90 L27.861,31.90 C28.718,31.90 29.392,30.425 29.392,29.578 L29.392,13.613 ZM33.435,17.725 L31.230,17.725 L31.230,23.954 L33.435,23.954 L33.435,17.725 ZM21.369,24.136 L14.876,24.136 C12.610,24.136 10.711,22.261 10.711,20.23 C10.711,17.785 12.610,15.911 14.876,15.911 L21.369,15.911 C23.635,15.911 25.534,17.785 25.534,20.23 C25.534,22.261 23.635,24.136 21.369,24.136 ZM21.369,17.725 L14.876,17.725 C13.590,17.725 12.549,18.753 12.549,20.23 C12.549,21.293 13.590,22.321 14.876,22.321 L21.369,22.321 C22.655,22.321 23.696,21.293 23.696,20.23 C23.696,18.753 22.655,17.725 21.369,17.725 Z"></path>
</symbol><symbol id="icon-wave">
<path fill-rule="evenodd" fill="rgb(0, 198, 164)" d="M1.999,18.999 L0.0,18.999 L0.0,5.998 L1.999,5.998 L1.999,18.999 ZM25.999,5.998 L23.999,5.998 L23.999,18.999 L25.999,18.999 L25.999,5.998 ZM7.999,3.998 L6.0,3.998 L6.0,20.999 L7.999,20.999 L7.999,3.998 ZM19.999,3.998 L17.999,3.998 L17.999,20.999 L19.999,20.999 L19.999,3.998 ZM13.999,0.1 L11.999,0.1 L11.999,24.999 L13.999,24.999 L13.999,0.1 Z"></path>
</symbol></svg>