<svg 
 xmlns="http://www.w3.org/2000/svg"
 xmlns:xlink="http://www.w3.org/1999/xlink"
 width="32px" height="32px">
<path fill-rule="evenodd"  fill="rgb(0, 198, 164)"
 d="M16.3,15.995 L16.3,0.4 L17.3,0.4 C24.713,0.4 32.3,7.284 32.3,14.995 L32.3,15.995 L16.3,15.995 ZM18.3,2.41 L18.3,13.995 L29.956,13.995 C29.401,8.28 23.970,2.598 18.3,2.41 ZM14.3,29.995 C20.621,29.995 26.3,24.612 26.3,17.995 L28.3,17.995 C28.3,25.714 21.723,31.994 14.3,31.994 C6.284,31.994 0.3,25.714 0.3,17.995 C0.3,10.274 6.284,3.995 14.3,3.995 L14.3,5.995 C7.386,5.995 2.3,11.378 2.3,17.995 C2.3,24.612 7.386,29.995 14.3,29.995 Z"/>
</svg>
