<svg  xmlns="http://www.w3.org/2000/svg" xmlns:xlink="http://www.w3.org/1999/xlink" width="25px" height="32px"><path fill-rule="evenodd"  fill="rgb(0, 198, 164)" d="M13.641,29.711 L18.189,29.711 C18.816,29.711 19.325,30.223 19.325,30.854 C19.325,31.486 18.816,31.998 18.189,31.998 L6.820,31.998 C6.192,31.998 5.684,31.486 5.684,30.854 C5.684,30.223 6.192,29.711 6.820,29.711 L11.368,29.711 L11.368,27.373 C4.993,26.796 0.0,21.408 0.0,14.848 C0.0,14.217 0.508,13.705 1.136,13.705 C1.764,13.705 2.273,14.217 2.273,14.848 C2.273,20.531 6.854,25.138 12.505,25.138 C18.155,25.138 22.736,20.531 22.736,14.848 C22.736,14.217 23.245,13.705 23.873,13.705 C24.501,13.705 25.9,14.217 25.9,14.848 C25.9,21.408 20.15,26.796 13.641,27.373 L13.641,29.711 ZM12.505,0.14 C16.899,0.14 20.462,3.568 20.462,7.988 L20.462,14.848 C20.462,19.268 16.899,22.851 12.505,22.851 C8.109,22.851 4.547,19.268 4.547,14.848 L4.547,7.988 C4.547,3.568 8.109,0.14 12.505,0.14 L12.505,0.14 ZM12.505,2.271 C9.365,2.271 6.820,4.831 6.820,7.988 L6.820,14.848 C6.820,18.5 9.365,20.565 12.505,20.565 C15.644,20.565 18.189,18.5 18.189,14.848 L18.189,7.988 C18.189,4.831 15.644,2.271 12.505,2.271 L12.505,2.271 Z"/></svg>