<svg  xmlns="http://www.w3.org/2000/svg" xmlns:xlink="http://www.w3.org/1999/xlink" width="36px" height="33px"><path fill-rule="evenodd"  fill="rgb(0, 198, 164)" d="M33.741,25.768 L31.230,25.768 L31.230,29.578 C31.230,31.453 29.698,32.965 27.861,32.965 L8.384,32.965 C6.546,32.965 5.15,31.453 5.15,29.638 L5.15,25.768 L2.504,25.768 C1.646,25.768 0.973,25.103 0.973,24.256 L0.973,17.423 C0.973,16.576 1.646,15.911 2.504,15.911 L5.15,15.911 L5.15,13.613 C5.15,11.798 6.546,10.286 8.384,10.286 L13.203,10.286 L10.288,5.664 C10.204,5.673 10.123,5.690 10.37,5.690 C8.629,5.690 7.526,4.541 7.526,3.211 C7.526,1.880 8.690,0.732 10.37,0.732 C11.385,0.732 12.549,1.880 12.549,3.211 C12.549,3.802 12.310,4.351 11.936,4.785 L15.405,10.286 L20.839,10.286 L24.326,4.757 C23.975,4.327 23.757,3.789 23.757,3.211 C23.757,1.880 24.921,0.732 26.268,0.732 C27.616,0.732 28.780,1.880 28.780,3.211 C28.780,4.541 27.616,5.690 26.268,5.690 C26.162,5.690 26.62,5.671 25.960,5.659 L23.42,10.286 L27.861,10.286 C29.698,10.286 31.230,11.798 31.230,13.613 L31.230,15.911 L33.741,15.911 C34.598,15.911 35.272,16.576 35.272,17.423 L35.272,24.256 C35.272,25.42 34.598,25.768 33.741,25.768 ZM10.37,2.485 C9.670,2.485 9.364,2.787 9.364,3.151 C9.364,3.513 9.670,3.815 10.37,3.815 C10.405,3.815 10.711,3.513 10.711,3.151 C10.711,2.787 10.405,2.485 10.37,2.485 ZM26.942,3.151 C26.942,2.787 26.636,2.485 26.268,2.485 C25.901,2.485 25.595,2.787 25.595,3.151 C25.595,3.513 25.901,3.815 26.268,3.815 C26.636,3.815 26.942,3.513 26.942,3.151 ZM2.810,17.725 L2.810,23.954 L5.15,23.954 L5.15,17.725 L2.810,17.725 ZM29.392,13.613 C29.392,12.766 28.718,12.101 27.861,12.101 L8.384,12.101 C7.526,12.101 6.852,12.766 6.852,13.613 L6.852,29.578 C6.852,30.425 7.526,31.90 8.384,31.90 L27.861,31.90 C28.718,31.90 29.392,30.425 29.392,29.578 L29.392,13.613 ZM33.435,17.725 L31.230,17.725 L31.230,23.954 L33.435,23.954 L33.435,17.725 ZM21.369,24.136 L14.876,24.136 C12.610,24.136 10.711,22.261 10.711,20.23 C10.711,17.785 12.610,15.911 14.876,15.911 L21.369,15.911 C23.635,15.911 25.534,17.785 25.534,20.23 C25.534,22.261 23.635,24.136 21.369,24.136 ZM21.369,17.725 L14.876,17.725 C13.590,17.725 12.549,18.753 12.549,20.23 C12.549,21.293 13.590,22.321 14.876,22.321 L21.369,22.321 C22.655,22.321 23.696,21.293 23.696,20.23 C23.696,18.753 22.655,17.725 21.369,17.725 Z"/></svg>